<svg xmlns="http://www.w3.org/2000/svg" viewBox="0 0 1600 900" role="img" aria-labelledby="t d">
<title id="t">Prompt Search</title><desc id="d">Mockup di Prompt Search: da un archivio locale a una ricerca istantanea.</desc>
<defs><linearGradient id="bg" x1="0" y1="0" x2="1" y2="1"><stop stop-color="#fbfdff"/><stop offset="1" stop-color="#eaf1ff"/></linearGradient><filter id="s" x="-20%" y="-20%" width="140%" height="160%"><feDropShadow dx="0" dy="28" stdDeviation="28" flood-color="#173b75" flood-opacity=".16"/></filter></defs>
<rect width="1600" height="900" fill="url(#bg)"/><circle cx="1480" cy="170" r="260" fill="#245ee6" opacity=".08"/>
<text x="800" y="92" text-anchor="middle" font-family="Arial,Helvetica,sans-serif" font-size="20" font-weight="700" letter-spacing="7" fill="#245ee6">EMANUELE BDC</text>
<text x="800" y="192" text-anchor="middle" font-family="Arial,Helvetica,sans-serif" font-size="104" font-weight="800" letter-spacing="-5" fill="#111827">Prompt <tspan fill="#245ee6">Search.</tspan></text>
<text x="800" y="246" text-anchor="middle" font-family="Arial,Helvetica,sans-serif" font-size="30" fill="#66758d">Cerca, apri e copia in un clic.</text>
<g transform="translate(85 295) rotate(-3 240 220)" filter="url(#s)"><rect width="450" height="420" rx="28" fill="#fff" stroke="#dfe7f4"/><text x="32" y="52" font-family="Arial" font-size="20" font-weight="700" fill="#253044">ARCHIVIO_MD</text><g font-family="Arial" font-size="17" fill="#46556c"><text x="35" y="110">📁 01_WORKFLOW</text><text x="35" y="154">📁 02_WRITING</text><text x="35" y="198">📁 03_RESEARCH</text><text x="35" y="242">📁 04_QUALITY</text><text x="35" y="286">📁 05_TEMPLATES</text><text x="35" y="330">📁 06_PROJECTS</text></g></g>
<g transform="translate(510 292)" filter="url(#s)"><rect width="990" height="500" rx="34" fill="#101826"/><rect x="24" y="24" width="942" height="438" rx="22" fill="#f8faff"/><circle cx="895" cy="50" r="7" fill="#ff6b63"/><circle cx="920" cy="50" r="7" fill="#f5c64c"/><circle cx="945" cy="50" r="7" fill="#34c759"/><text x="62" y="80" font-family="Arial" font-size="15" font-weight="700" letter-spacing="4" fill="#245ee6">EMANUELE BDC</text><text x="62" y="125" font-family="Arial" font-size="38" font-weight="800" fill="#151e2e">Prompt <tspan fill="#245ee6">Search.</tspan></text><rect x="62" y="155" width="840" height="66" rx="20" fill="#fff" stroke="#7ea1ff" stroke-width="2"/><text x="105" y="198" font-family="Arial" font-size="26" fill="#1d2636">workflow</text><rect x="64" y="238" width="136" height="42" rx="12" fill="#e7eeff"/><text x="82" y="265" font-family="Arial" font-size="16" font-weight="700" fill="#245ee6">Principali</text><rect x="62" y="303" width="840" height="124" rx="20" fill="#fff" stroke="#e3e8f2"/><text x="88" y="335" font-family="Arial" font-size="13" fill="#718099">DEMO</text><text x="88" y="374" font-family="Arial" font-size="25" font-weight="800" fill="#1b2434">Elemento di esempio</text><rect x="88" y="390" width="145" height="38" rx="10" fill="#245ee6"/><text x="111" y="415" font-family="Arial" font-size="15" font-weight="700" fill="#fff">Copia</text></g>
<text x="800" y="850" text-anchor="middle" font-family="Arial" font-size="18" fill="#66758d">Local-first · Offline · Nessuna API · Nessun prompt incluso nella build pubblica</text>
</svg>